<?xml version="1.0" encoding="utf-8"?>
<!-- Generator: Adobe Illustrator 21.0.2, SVG Export Plug-In . SVG Version: 6.00 Build 0)  -->
<svg version="1.1" xmlns="http://www.w3.org/2000/svg" xmlns:xlink="http://www.w3.org/1999/xlink" x="0px" y="0px"
	 viewBox="0 0 387.8 57.2" style="enable-background:new 0 0 387.8 57.2;" xml:space="preserve">
<style type="text/css">
	.st0{display:none;}
	.st1{display:inline;fill:#010202;}
	.st2{display:inline;fill:none;stroke:#FFFFFF;stroke-width:0.5;stroke-miterlimit:10;}
	.st3{display:inline;}
	.st4{fill:#FFFFFF;}
	.st5{font-family:'HelveticaNeue-MediumExt';}
	.st6{font-size:23.4675px;}
	.st7{display:inline;fill:none;stroke:#FFFFFF;stroke-width:0.9801;stroke-miterlimit:10;}
	.st8{display:inline;fill:#FFFFFF;}
	.st9{display:inline;fill:none;stroke:#010202;stroke-width:0.9801;stroke-miterlimit:10;}
	.st10{fill:#010202;}
	.st11{fill:none;stroke:#010202;stroke-width:0.98;stroke-miterlimit:10;}
</style>
<g id="Black_Background" class="st0">
	<rect x="-2.7" y="-2.1" class="st1" width="390.6" height="62.3"/>
</g>
<g id="White_RiskGuardian_Suite" class="st0">
	<line class="st2" x1="127.5" y1="14.6" x2="127.5" y2="40.1"/>
	<g class="st3">
		<text transform="matrix(1.0069 0 0 1 136.4808 36.7537)"><tspan x="0" y="0" class="st4 st5 st6">Ris</tspan><tspan x="37.4" y="0" class="st4 st5 st6">k</tspan><tspan x="52.2" y="0" class="st4 st5 st6">Gu</tspan><tspan x="87.6" y="0" class="st4 st5 st6">a</tspan><tspan x="103.6" y="0" class="st4 st5 st6">r</tspan><tspan x="113.4" y="0" class="st4 st5 st6">d</tspan><tspan x="129.8" y="0" class="st4 st5 st6">ian </tspan><tspan x="172.8" y="0" class="st4 st5 st6">Su</tspan><tspan x="205.1" y="0" class="st4 st5 st6">i</tspan><tspan x="210.9" y="0" class="st4 st5 st6">te</tspan></text>
	</g>
	<g class="st3">
		<g>
			<path class="st4" d="M18.9,20H30c3.9,0,4.8,2.1,4.8,4.2c0,2.4-1.4,3.1-2.3,3.5c1.3,0.4,3.1,1.3,3.1,4.2c0,1.9-1.2,5-5.7,5h-11V20
				z M22.4,26.8h6.6c1,0,2.3-0.2,2.3-2.1c0-1.4-0.9-2.1-2.9-2.1h-6V26.8z M22.4,34.2h6.4c1.6,0,3.2-0.3,3.2-2.5
				c0-1.6-1.1-2.4-2.7-2.4h-6.9V34.2z"/>
			<path class="st4" d="M37.2,19.7h3.3v2.6h-3.3V19.7z M37.2,24.3h3.3v12.5h-3.3V24.3z"/>
			<path class="st4" d="M45,32.9c0.1,1.9,2.3,2.2,3.4,2.2c1.6,0,3.4-0.4,3.4-1.6c0-1-0.5-1.3-4.1-1.8c-3.9-0.5-5.9-1-5.9-3.8
				c0-3.6,4.2-4,6.3-4c1.9,0,6.6,0.3,6.8,4.3h-3.4c-0.3-1.9-2.4-2.1-3.5-2.1c-1.8,0-2.8,0.8-2.8,1.4c0,1,0.3,1.2,3.4,1.6
				c4.1,0.6,6.8,1,6.8,3.9c0,3.2-3,4.3-6.9,4.3c-2.7,0-6.9-0.6-7-4.4H45z"/>
			<path class="st4" d="M56.5,24.3h3.3v1.9h0c1.1-1.3,2.7-2.2,4.9-2.2c2.7,0,5.3,1,5.3,4.3v8.5h-3.3v-7.5c0-1.3-0.4-2.9-3.1-2.9
				c-1.7,0-3.9,0.9-3.9,3.6v6.7h-3.3V24.3z"/>
			<path class="st4" d="M78.8,23.8c5.6,0,7.7,3.3,7.7,6.7c0,3.4-2.1,6.7-7.7,6.7s-7.7-3.3-7.7-6.7C71.1,27.1,73.3,23.8,78.8,23.8z
				 M78.8,34.8c3.2,0,4.3-2.1,4.3-4.2c0-2.2-1.2-4.2-4.3-4.2c-3.2,0-4.3,2.1-4.3,4.2C74.5,32.7,75.7,34.8,78.8,34.8z"/>
			<path class="st4" d="M102.3,36.8H99v-1.7h0c-0.2,0.8-2.2,2.2-4.8,2.2c-4.8,0-6.9-3.5-6.9-6.7c0-3.2,2.1-6.6,6.9-6.6
				c2,0,3.8,0.6,4.8,2.1h0v-6.4h3.3V36.8z M95,34.8c3,0,4.2-2.1,4.2-4.2c0-2.1-1.2-4.1-4.2-4.1c-3.1,0-4.2,2.1-4.2,4.1
				C90.7,32.7,91.9,34.8,95,34.8z"/>
			<path class="st4" d="M106.9,31.4c0.1,1.4,1,3.5,4.3,3.5c2.1,0,3.1-0.8,3.7-1.8h3.5c-0.7,1.4-2.4,4.2-7.2,4.2
				c-5.6,0-7.7-3.3-7.7-6.6c0-4.2,3.1-6.9,7.5-6.9c5.6,0,7.7,3.4,7.7,7.1v0.5H106.9z M115.3,29.3c-0.4-2.5-2.6-3.3-4.2-3.3
				c-1.5,0-3.6,0.7-4.2,3.3H115.3z"/>
		</g>
		<circle class="st4" cx="46.6" cy="11.6" r="6.1"/>
		<circle class="st4" cx="10.8" cy="40.5" r="4.7"/>
		<circle class="st4" cx="29" cy="46.5" r="3.7"/>
	</g>
</g>
<g id="no_type_white" class="st0">
	<line class="st7" x1="127.5" y1="14.6" x2="127.5" y2="40.1"/>
	<g class="st3">
		<g>
			<path class="st4" d="M138.2,20h10.7c4.3,0,5.7,1.9,5.7,4.6c0,2.2-1.2,3.5-2.8,4v0c2,0.4,2.5,2.2,2.5,4.5c0,0.8,0,2.7,0.7,3.6
				h-3.8c-0.3-0.5-0.4-1.3-0.4-2.5c0-2.4-0.3-4.1-2.9-4.1h-6v6.6h-3.5V20z M147.9,27.5c2,0,3-0.6,3-2.5c0-1.7-1.2-2.4-3-2.4h-6.1
				v4.9H147.9z"/>
			<path class="st4" d="M156.2,19.7h3.3v2.6h-3.3V19.7z M156.2,24.3h3.3v12.4h-3.3V24.3z"/>
			<path class="st4" d="M164.1,32.9c0.1,1.9,2.3,2.2,3.5,2.2c1.6,0,3.4-0.4,3.4-1.6c0-1-0.5-1.3-4.1-1.8c-3.9-0.5-5.9-1-5.9-3.8
				c0-3.5,4.2-4,6.3-4c1.9,0,6.6,0.3,6.8,4.3h-3.4c-0.3-1.9-2.4-2.1-3.5-2.1c-1.8,0-2.8,0.8-2.8,1.4c0,1,0.3,1.2,3.5,1.6
				c4.1,0.6,6.8,1,6.8,3.9c0,3.2-3,4.2-6.9,4.2c-2.7,0-6.9-0.6-7-4.4H164.1z"/>
			<path class="st4" d="M175.5,19.7h3.3v9.6l5.8-5h4.6l-5.8,4.7l6.3,7.7h-4.4l-4.4-5.7l-2.1,1.7v4h-3.3V19.7z"/>
			<path class="st4" d="M208.8,36.8h-2.1l-0.5-2.2c-1.4,1.6-3.8,2.7-6.4,2.7c-7.1,0-9.9-4.1-9.9-8.8c0-4.7,3-8.8,9.8-8.8
				c5.1,0,8.4,2.6,8.8,5.9h-3.8c-0.6-2.3-2.8-3.2-5.1-3.2c-4.4,0-6.1,2.7-6.1,6.3c0,4.5,2.9,6.1,5.9,6.1c3.6,0,5.3-1.6,5.8-4.4h-4.8
				v-2.6h8.3V36.8z"/>
			<path class="st4" d="M210.8,24.3h3.3v7.1c0,1.9,0.4,3.3,3.2,3.3c1.4,0,3.8-0.9,3.8-3.6v-6.8h3.3v12.4h-3.3V35h0
				c-1.1,1.3-2.7,2.2-4.9,2.2c-2.7,0-5.3-1-5.3-4.6V24.3z"/>
			<path class="st4" d="M239.5,33.9c0,0.7,0.5,0.7,0.7,0.7c0.3,0,0.8,0,1.1-0.1v2.3c-0.6,0.1-1.2,0.3-2.3,0.3
				c-2.1,0-2.4-1.1-2.5-1.6c-0.6,0.6-2.2,1.7-5.9,1.7c-3.3,0-5.1-1.5-5.1-3.9c0-3.4,3.5-3.7,5.6-3.9c4.7-0.4,5.2-0.6,5.2-1.6
				c0-1.4-1.7-1.8-3.5-1.8c-2.2,0-3.3,0.7-3.4,2.1h-3.2c0.5-3.3,2.9-4.3,6.6-4.3c6.5,0,6.7,2.6,6.7,4.2V33.9z M236.2,30.6
				c-0.9,0.4-2,0.5-4.3,0.8c-2.5,0.3-3,0.8-3,1.9c0,1.6,1.5,1.9,2.6,1.9c1.7,0,4.7-0.7,4.7-3.4V30.6z"/>
			<path class="st4" d="M242.1,24.3h3.3v2.4h0c0.9-1.4,2.2-2.7,4.7-2.7c0.5,0,0.9,0,1.3,0.1v3.2c-0.9-0.3-1.5-0.3-2.1-0.3
				c-1.7,0-4,0.9-4,3.8v6h-3.3V24.3z"/>
			<path class="st4" d="M266.4,36.8h-3.3V35h0c-0.2,0.8-2.2,2.2-4.8,2.2c-4.8,0-6.9-3.4-6.9-6.6c0-3.1,2.1-6.6,6.9-6.6
				c2,0,3.8,0.6,4.8,2.1h0v-6.4h3.3V36.8z M259.1,34.7c3,0,4.2-2,4.2-4.2c0-2.1-1.2-4.1-4.2-4.1c-3.1,0-4.2,2-4.2,4.1
				C254.9,32.7,256,34.7,259.1,34.7z"/>
			<path class="st4" d="M268.6,19.7h3.3v2.6h-3.3V19.7z M268.6,24.3h3.3v12.4h-3.3V24.3z"/>
			<path class="st4" d="M287,33.9c0,0.7,0.5,0.7,0.7,0.7c0.3,0,0.8,0,1.1-0.1v2.3c-0.6,0.1-1.2,0.3-2.3,0.3c-2.1,0-2.4-1.1-2.5-1.6
				c-0.6,0.6-2.2,1.7-5.9,1.7c-3.3,0-5.1-1.5-5.1-3.9c0-3.4,3.5-3.7,5.6-3.9c4.7-0.4,5.2-0.6,5.2-1.6c0-1.4-1.7-1.8-3.5-1.8
				c-2.2,0-3.3,0.7-3.4,2.1h-3.2c0.5-3.3,2.9-4.3,6.6-4.3c6.5,0,6.7,2.6,6.7,4.2V33.9z M283.8,30.6c-0.9,0.4-2,0.5-4.3,0.8
				c-2.5,0.3-3,0.8-3,1.9c0,1.6,1.5,1.9,2.6,1.9c1.7,0,4.7-0.7,4.7-3.4V30.6z"/>
			<path class="st4" d="M289.2,24.3h3.3v1.9h0c1.1-1.3,2.7-2.2,4.9-2.2c2.7,0,5.3,1,5.3,4.3v8.4h-3.3v-7.4c0-1.3-0.4-2.9-3.1-2.9
				c-1.7,0-3.9,0.9-3.9,3.6v6.7h-3.3V24.3z"/>
			<path class="st4" d="M318.7,19.5c2.6,0,7.8,0.5,8.2,5.3h-3.8c-0.1-1.3-1.3-2.7-4.3-2.7c-2.4,0-3.9,0.7-3.9,2.3
				c0,3.9,12.6,0.2,12.6,7.3c0,4.3-4.5,5.4-8.1,5.4c-6.1,0-8.5-2.4-8.6-5.9h3.8c0.1,2.2,1.9,3.3,4.8,3.3c2.2,0,4.2-0.6,4.2-2.5
				c0-4.2-12.4-0.5-12.4-7.4C311.3,21,314.6,19.5,318.7,19.5z"/>
			<path class="st4" d="M328.7,24.3h3.3v7.1c0,1.9,0.4,3.3,3.2,3.3c1.4,0,3.8-0.9,3.8-3.6v-6.8h3.3v12.4H339V35h0
				c-1.1,1.3-2.7,2.2-4.9,2.2c-2.7,0-5.3-1-5.3-4.6V24.3z"/>
			<path class="st4" d="M344.4,19.7h3.3v2.6h-3.3V19.7z M344.4,24.3h3.3v12.4h-3.3V24.3z"/>
			<path class="st4" d="M351.2,26.7h-2.6v-2.3h2.6v-3.8h3.3v3.8h3.4v2.3h-3.4v5.7c0,1.4,0.1,2.2,1.2,2.2c0.8,0,1.6,0,2.3,0v2.3
				c-0.9,0.1-1.5,0.2-2.5,0.2c-4,0-4.3-1.4-4.3-3.8V26.7z"/>
			<path class="st4" d="M361.8,31.4c0.1,1.4,1,3.5,4.3,3.5c2.2,0,3.1-0.8,3.7-1.8h3.5c-0.7,1.4-2.4,4.1-7.2,4.1
				c-5.6,0-7.8-3.3-7.8-6.6c0-4.2,3.1-6.8,7.5-6.8c5.6,0,7.7,3.4,7.7,7v0.5H361.8z M370.2,29.3c-0.4-2.5-2.6-3.2-4.2-3.2
				c-1.5,0-3.6,0.7-4.2,3.2H370.2z"/>
		</g>
	</g>
	<g class="st3">
		<g>
			<path class="st4" d="M18.9,20H30c3.9,0,4.8,2.1,4.8,4.2c0,2.4-1.4,3.1-2.3,3.5c1.3,0.4,3.1,1.3,3.1,4.2c0,1.9-1.2,5-5.7,5h-11V20
				z M22.4,26.8h6.6c1,0,2.3-0.2,2.3-2.1c0-1.4-0.9-2.1-2.9-2.1h-6V26.8z M22.4,34.2h6.4c1.6,0,3.2-0.3,3.2-2.5
				c0-1.6-1.1-2.4-2.7-2.4h-6.9V34.2z"/>
			<path class="st4" d="M37.2,19.7h3.3v2.6h-3.3V19.7z M37.2,24.3h3.3v12.5h-3.3V24.3z"/>
			<path class="st4" d="M45,32.9c0.1,1.9,2.3,2.2,3.4,2.2c1.6,0,3.4-0.4,3.4-1.6c0-1-0.5-1.3-4.1-1.8c-3.9-0.5-5.9-1-5.9-3.8
				c0-3.6,4.2-4,6.3-4c1.9,0,6.6,0.3,6.8,4.3h-3.4c-0.3-1.9-2.4-2.1-3.5-2.1c-1.8,0-2.8,0.8-2.8,1.4c0,1,0.3,1.2,3.4,1.6
				c4.1,0.6,6.8,1,6.8,3.9c0,3.2-3,4.3-6.9,4.3c-2.7,0-6.9-0.6-7-4.4H45z"/>
			<path class="st4" d="M56.5,24.3h3.3v1.9h0c1.1-1.3,2.7-2.2,4.9-2.2c2.7,0,5.3,1,5.3,4.3v8.5h-3.3v-7.5c0-1.3-0.4-2.9-3.1-2.9
				c-1.7,0-3.9,0.9-3.9,3.6v6.7h-3.3V24.3z"/>
			<path class="st4" d="M78.8,23.8c5.6,0,7.7,3.3,7.7,6.7c0,3.4-2.1,6.7-7.7,6.7s-7.7-3.3-7.7-6.7C71.1,27.1,73.3,23.8,78.8,23.8z
				 M78.8,34.8c3.2,0,4.3-2.1,4.3-4.2c0-2.2-1.2-4.2-4.3-4.2c-3.2,0-4.3,2.1-4.3,4.2C74.5,32.7,75.7,34.8,78.8,34.8z"/>
			<path class="st4" d="M102.3,36.8H99v-1.7h0c-0.2,0.8-2.2,2.2-4.8,2.2c-4.8,0-6.9-3.5-6.9-6.7c0-3.2,2.1-6.6,6.9-6.6
				c2,0,3.8,0.6,4.8,2.1h0v-6.4h3.3V36.8z M95,34.8c3,0,4.2-2.1,4.2-4.2c0-2.1-1.2-4.1-4.2-4.1c-3.1,0-4.2,2.1-4.2,4.1
				C90.7,32.7,91.9,34.8,95,34.8z"/>
			<path class="st4" d="M106.9,31.4c0.1,1.4,1,3.5,4.3,3.5c2.1,0,3.1-0.8,3.7-1.8h3.5c-0.7,1.4-2.4,4.2-7.2,4.2
				c-5.6,0-7.7-3.3-7.7-6.6c0-4.2,3.1-6.9,7.5-6.9c5.6,0,7.7,3.4,7.7,7.1v0.5H106.9z M115.3,29.3c-0.4-2.5-2.6-3.3-4.2-3.3
				c-1.5,0-3.6,0.7-4.2,3.3H115.3z"/>
		</g>
		<circle class="st4" cx="46.6" cy="11.6" r="6.1"/>
		<circle class="st4" cx="10.8" cy="40.5" r="4.7"/>
		<circle class="st4" cx="29" cy="46.5" r="3.7"/>
	</g>
</g>
<g id="White_Background_kopia" class="st0">
	<rect x="-2.7" y="-2.1" class="st8" width="390.6" height="62.3"/>
</g>
<g id="Black_RiskGuardian_Suite_kopia" class="st0">
	<line class="st9" x1="127.5" y1="14.6" x2="127.5" y2="40.1"/>
	<g class="st3">
		<text transform="matrix(1.0069 0 0 1 136.4808 36.7537)"><tspan x="0" y="0" class="st10 st5 st6">Ris</tspan><tspan x="37.4" y="0" class="st10 st5 st6">k</tspan><tspan x="52.2" y="0" class="st10 st5 st6">Gu</tspan><tspan x="87.6" y="0" class="st10 st5 st6">a</tspan><tspan x="103.6" y="0" class="st10 st5 st6">r</tspan><tspan x="113.4" y="0" class="st10 st5 st6">d</tspan><tspan x="129.8" y="0" class="st10 st5 st6">ian </tspan><tspan x="172.8" y="0" class="st10 st5 st6">Su</tspan><tspan x="205.1" y="0" class="st10 st5 st6">i</tspan><tspan x="210.9" y="0" class="st10 st5 st6">te</tspan></text>
	</g>
	<g class="st3">
		<g>
			<path class="st10" d="M18.9,20H30c3.9,0,4.8,2.1,4.8,4.2c0,2.4-1.4,3.1-2.3,3.5c1.3,0.4,3.1,1.3,3.1,4.2c0,1.9-1.2,5-5.7,5h-11
				V20z M22.4,26.8h6.6c1,0,2.3-0.2,2.3-2.1c0-1.4-0.9-2.1-2.9-2.1h-6V26.8z M22.4,34.2h6.4c1.6,0,3.2-0.3,3.2-2.5
				c0-1.6-1.1-2.4-2.7-2.4h-6.9V34.2z"/>
			<path class="st10" d="M37.2,19.7h3.3v2.6h-3.3V19.7z M37.2,24.3h3.3v12.5h-3.3V24.3z"/>
			<path class="st10" d="M45,32.9c0.1,1.9,2.3,2.2,3.4,2.2c1.6,0,3.4-0.4,3.4-1.6c0-1-0.5-1.3-4.1-1.8c-3.9-0.5-5.9-1-5.9-3.8
				c0-3.6,4.2-4,6.3-4c1.9,0,6.6,0.3,6.8,4.3h-3.4c-0.3-1.9-2.4-2.1-3.5-2.1c-1.8,0-2.8,0.8-2.8,1.4c0,1,0.3,1.2,3.4,1.6
				c4.1,0.6,6.8,1,6.8,3.9c0,3.2-3,4.3-6.9,4.3c-2.7,0-6.9-0.6-7-4.4H45z"/>
			<path class="st10" d="M56.5,24.3h3.3v1.9h0c1.1-1.3,2.7-2.2,4.9-2.2c2.7,0,5.3,1,5.3,4.3v8.5h-3.3v-7.5c0-1.3-0.4-2.9-3.1-2.9
				c-1.7,0-3.9,0.9-3.9,3.6v6.7h-3.3V24.3z"/>
			<path class="st10" d="M78.8,23.8c5.6,0,7.7,3.3,7.7,6.7c0,3.4-2.1,6.7-7.7,6.7s-7.7-3.3-7.7-6.7C71.1,27.1,73.3,23.8,78.8,23.8z
				 M78.8,34.8c3.2,0,4.3-2.1,4.3-4.2c0-2.2-1.2-4.2-4.3-4.2c-3.2,0-4.3,2.1-4.3,4.2C74.5,32.7,75.7,34.8,78.8,34.8z"/>
			<path class="st10" d="M102.3,36.8H99v-1.7h0c-0.2,0.8-2.2,2.2-4.8,2.2c-4.8,0-6.9-3.5-6.9-6.7c0-3.2,2.1-6.6,6.9-6.6
				c2,0,3.8,0.6,4.8,2.1h0v-6.4h3.3V36.8z M95,34.8c3,0,4.2-2.1,4.2-4.2c0-2.1-1.2-4.1-4.2-4.1c-3.1,0-4.2,2.1-4.2,4.1
				C90.7,32.7,91.9,34.8,95,34.8z"/>
			<path class="st10" d="M106.9,31.4c0.1,1.4,1,3.5,4.3,3.5c2.1,0,3.1-0.8,3.7-1.8h3.5c-0.7,1.4-2.4,4.2-7.2,4.2
				c-5.6,0-7.7-3.3-7.7-6.6c0-4.2,3.1-6.9,7.5-6.9c5.6,0,7.7,3.4,7.7,7.1v0.5H106.9z M115.3,29.3c-0.4-2.5-2.6-3.3-4.2-3.3
				c-1.5,0-3.6,0.7-4.2,3.3H115.3z"/>
		</g>
		<circle class="st10" cx="46.6" cy="11.6" r="6.1"/>
		<circle class="st10" cx="10.8" cy="40.5" r="4.7"/>
		<circle class="st10" cx="29" cy="46.5" r="3.7"/>
	</g>
</g>
<g id="Black_no_type">
	<line class="st11" x1="127.5" y1="14.6" x2="127.5" y2="40.1"/>
	<g>
		<g>
			<path class="st10" d="M138.2,20h10.7c4.3,0,5.7,1.9,5.7,4.6c0,2.2-1.2,3.5-2.8,4v0c2,0.4,2.5,2.2,2.5,4.5c0,0.8,0,2.7,0.7,3.6
				h-3.8c-0.3-0.5-0.4-1.3-0.4-2.5c0-2.4-0.3-4.1-2.9-4.1h-6v6.6h-3.5V20z M147.9,27.5c2,0,3-0.6,3-2.5c0-1.7-1.2-2.4-3-2.4h-6.1
				v4.9H147.9z"/>
			<path class="st10" d="M156.2,19.7h3.3v2.6h-3.3V19.7z M156.2,24.3h3.3v12.4h-3.3V24.3z"/>
			<path class="st10" d="M164.1,32.9c0.1,1.9,2.3,2.2,3.5,2.2c1.6,0,3.4-0.4,3.4-1.6c0-1-0.5-1.3-4.1-1.8c-3.9-0.5-5.9-1-5.9-3.8
				c0-3.5,4.2-4,6.3-4c1.9,0,6.6,0.3,6.8,4.3h-3.4c-0.3-1.9-2.4-2.1-3.5-2.1c-1.8,0-2.8,0.8-2.8,1.4c0,1,0.3,1.2,3.5,1.6
				c4.1,0.6,6.8,1,6.8,3.9c0,3.2-3,4.2-6.9,4.2c-2.7,0-6.9-0.6-7-4.4H164.1z"/>
			<path class="st10" d="M175.5,19.7h3.3v9.6l5.8-5h4.6l-5.8,4.7l6.3,7.7h-4.4l-4.4-5.7l-2.1,1.7v4h-3.3V19.7z"/>
			<path class="st10" d="M208.8,36.8h-2.1l-0.5-2.2c-1.4,1.6-3.8,2.7-6.4,2.7c-7.1,0-9.9-4.1-9.9-8.8c0-4.7,3-8.8,9.8-8.8
				c5.1,0,8.4,2.6,8.8,5.9h-3.8c-0.6-2.3-2.8-3.2-5.1-3.2c-4.4,0-6.1,2.7-6.1,6.3c0,4.5,2.9,6.1,5.9,6.1c3.6,0,5.3-1.6,5.8-4.4h-4.8
				v-2.6h8.3V36.8z"/>
			<path class="st10" d="M210.8,24.3h3.3v7.1c0,1.9,0.4,3.3,3.2,3.3c1.4,0,3.8-0.9,3.8-3.6v-6.8h3.3v12.4h-3.3V35h0
				c-1.1,1.3-2.7,2.2-4.9,2.2c-2.7,0-5.3-1-5.3-4.6V24.3z"/>
			<path class="st10" d="M239.5,33.9c0,0.7,0.5,0.7,0.7,0.7c0.3,0,0.8,0,1.1-0.1v2.3c-0.6,0.1-1.2,0.3-2.3,0.3
				c-2.1,0-2.4-1.1-2.5-1.6c-0.6,0.6-2.2,1.7-5.9,1.7c-3.3,0-5.1-1.5-5.1-3.9c0-3.4,3.5-3.7,5.6-3.9c4.7-0.4,5.2-0.6,5.2-1.6
				c0-1.4-1.7-1.8-3.5-1.8c-2.2,0-3.3,0.7-3.4,2.1h-3.2c0.5-3.3,2.9-4.3,6.6-4.3c6.5,0,6.7,2.6,6.7,4.2V33.9z M236.2,30.6
				c-0.9,0.4-2,0.5-4.3,0.8c-2.5,0.3-3,0.8-3,1.9c0,1.6,1.5,1.9,2.6,1.9c1.7,0,4.7-0.7,4.7-3.4V30.6z"/>
			<path class="st10" d="M242.1,24.3h3.3v2.4h0c0.9-1.4,2.2-2.7,4.7-2.7c0.5,0,0.9,0,1.3,0.1v3.2c-0.9-0.3-1.5-0.3-2.1-0.3
				c-1.7,0-4,0.9-4,3.8v6h-3.3V24.3z"/>
			<path class="st10" d="M266.4,36.8h-3.3V35h0c-0.2,0.8-2.2,2.2-4.8,2.2c-4.8,0-6.9-3.4-6.9-6.6c0-3.1,2.1-6.6,6.9-6.6
				c2,0,3.8,0.6,4.8,2.1h0v-6.4h3.3V36.8z M259.1,34.7c3,0,4.2-2,4.2-4.2c0-2.1-1.2-4.1-4.2-4.1c-3.1,0-4.2,2-4.2,4.1
				C254.9,32.7,256,34.7,259.1,34.7z"/>
			<path class="st10" d="M268.6,19.7h3.3v2.6h-3.3V19.7z M268.6,24.3h3.3v12.4h-3.3V24.3z"/>
			<path class="st10" d="M287,33.9c0,0.7,0.5,0.7,0.7,0.7c0.3,0,0.8,0,1.1-0.1v2.3c-0.6,0.1-1.2,0.3-2.3,0.3c-2.1,0-2.4-1.1-2.5-1.6
				c-0.6,0.6-2.2,1.7-5.9,1.7c-3.3,0-5.1-1.5-5.1-3.9c0-3.4,3.5-3.7,5.6-3.9c4.7-0.4,5.2-0.6,5.2-1.6c0-1.4-1.7-1.8-3.5-1.8
				c-2.2,0-3.3,0.7-3.4,2.1h-3.2c0.5-3.3,2.9-4.3,6.6-4.3c6.5,0,6.7,2.6,6.7,4.2V33.9z M283.8,30.6c-0.9,0.4-2,0.5-4.3,0.8
				c-2.5,0.3-3,0.8-3,1.9c0,1.6,1.5,1.9,2.6,1.9c1.7,0,4.7-0.7,4.7-3.4V30.6z"/>
			<path class="st10" d="M289.2,24.3h3.3v1.9h0c1.1-1.3,2.7-2.2,4.9-2.2c2.7,0,5.3,1,5.3,4.3v8.4h-3.3v-7.4c0-1.3-0.4-2.9-3.1-2.9
				c-1.7,0-3.9,0.9-3.9,3.6v6.7h-3.3V24.3z"/>
			<path class="st10" d="M318.7,19.5c2.6,0,7.8,0.5,8.2,5.3h-3.8c-0.1-1.3-1.3-2.7-4.3-2.7c-2.4,0-3.9,0.7-3.9,2.3
				c0,3.9,12.6,0.2,12.6,7.3c0,4.3-4.5,5.4-8.1,5.4c-6.1,0-8.5-2.4-8.6-5.9h3.8c0.1,2.2,1.9,3.3,4.8,3.3c2.2,0,4.2-0.6,4.2-2.5
				c0-4.2-12.4-0.5-12.4-7.4C311.3,21,314.6,19.5,318.7,19.5z"/>
			<path class="st10" d="M328.7,24.3h3.3v7.1c0,1.9,0.4,3.3,3.2,3.3c1.4,0,3.8-0.9,3.8-3.6v-6.8h3.3v12.4H339V35h0
				c-1.1,1.3-2.7,2.2-4.9,2.2c-2.7,0-5.3-1-5.3-4.6V24.3z"/>
			<path class="st10" d="M344.4,19.7h3.3v2.6h-3.3V19.7z M344.4,24.3h3.3v12.4h-3.3V24.3z"/>
			<path class="st10" d="M351.2,26.7h-2.6v-2.3h2.6v-3.8h3.3v3.8h3.4v2.3h-3.4v5.7c0,1.4,0.1,2.2,1.2,2.2c0.8,0,1.6,0,2.3,0v2.3
				c-0.9,0.1-1.5,0.2-2.5,0.2c-4,0-4.3-1.4-4.3-3.8V26.7z"/>
			<path class="st10" d="M361.8,31.4c0.1,1.4,1,3.5,4.3,3.5c2.2,0,3.1-0.8,3.7-1.8h3.5c-0.7,1.4-2.4,4.1-7.2,4.1
				c-5.6,0-7.8-3.3-7.8-6.6c0-4.2,3.1-6.8,7.5-6.8c5.6,0,7.7,3.4,7.7,7v0.5H361.8z M370.2,29.3c-0.4-2.5-2.6-3.2-4.2-3.2
				c-1.5,0-3.6,0.7-4.2,3.2H370.2z"/>
		</g>
	</g>
	<g>
		<g>
			<path class="st10" d="M18.9,20H30c3.9,0,4.8,2.1,4.8,4.2c0,2.4-1.4,3.1-2.3,3.5c1.3,0.4,3.1,1.3,3.1,4.2c0,1.9-1.2,5-5.7,5h-11
				V20z M22.4,26.8h6.6c1,0,2.3-0.2,2.3-2.1c0-1.4-0.9-2.1-2.9-2.1h-6V26.8z M22.4,34.2h6.4c1.6,0,3.2-0.3,3.2-2.5
				c0-1.6-1.1-2.4-2.7-2.4h-6.9V34.2z"/>
			<path class="st10" d="M37.2,19.7h3.3v2.6h-3.3V19.7z M37.2,24.3h3.3v12.5h-3.3V24.3z"/>
			<path class="st10" d="M45,32.9c0.1,1.9,2.3,2.2,3.4,2.2c1.6,0,3.4-0.4,3.4-1.6c0-1-0.5-1.3-4.1-1.8c-3.9-0.5-5.9-1-5.9-3.8
				c0-3.6,4.2-4,6.3-4c1.9,0,6.6,0.3,6.8,4.3h-3.4c-0.3-1.9-2.4-2.1-3.5-2.1c-1.8,0-2.8,0.8-2.8,1.4c0,1,0.3,1.2,3.4,1.6
				c4.1,0.6,6.8,1,6.8,3.9c0,3.2-3,4.3-6.9,4.3c-2.7,0-6.9-0.6-7-4.4H45z"/>
			<path class="st10" d="M56.5,24.3h3.3v1.9h0c1.1-1.3,2.7-2.2,4.9-2.2c2.7,0,5.3,1,5.3,4.3v8.5h-3.3v-7.5c0-1.3-0.4-2.9-3.1-2.9
				c-1.7,0-3.9,0.9-3.9,3.6v6.7h-3.3V24.3z"/>
			<path class="st10" d="M78.8,23.8c5.6,0,7.7,3.3,7.7,6.7c0,3.4-2.1,6.7-7.7,6.7s-7.7-3.3-7.7-6.7C71.1,27.1,73.3,23.8,78.8,23.8z
				 M78.8,34.8c3.2,0,4.3-2.1,4.3-4.2c0-2.2-1.2-4.2-4.3-4.2c-3.2,0-4.3,2.1-4.3,4.2C74.5,32.7,75.7,34.8,78.8,34.8z"/>
			<path class="st10" d="M102.3,36.8H99v-1.7h0c-0.2,0.8-2.2,2.2-4.8,2.2c-4.8,0-6.9-3.5-6.9-6.7c0-3.2,2.1-6.6,6.9-6.6
				c2,0,3.8,0.6,4.8,2.1h0v-6.4h3.3V36.8z M95,34.8c3,0,4.2-2.1,4.2-4.2c0-2.1-1.2-4.1-4.2-4.1c-3.1,0-4.2,2.1-4.2,4.1
				C90.7,32.7,91.9,34.8,95,34.8z"/>
			<path class="st10" d="M106.9,31.4c0.1,1.4,1,3.5,4.3,3.5c2.1,0,3.1-0.8,3.7-1.8h3.5c-0.7,1.4-2.4,4.2-7.2,4.2
				c-5.6,0-7.7-3.3-7.7-6.6c0-4.2,3.1-6.9,7.5-6.9c5.6,0,7.7,3.4,7.7,7.1v0.5H106.9z M115.3,29.3c-0.4-2.5-2.6-3.3-4.2-3.3
				c-1.5,0-3.6,0.7-4.2,3.3H115.3z"/>
		</g>
		<circle class="st10" cx="46.6" cy="11.6" r="6.1"/>
		<circle class="st10" cx="10.8" cy="40.5" r="4.7"/>
		<circle class="st10" cx="29" cy="46.5" r="3.7"/>
	</g>
</g>
</svg>
